<svg xmlns="http://www.w3.org/2000/svg" width="45.909" height="44.761" viewBox="0 0 45.909 44.761">
  <path id="Icon_simple-adobeillustrator" data-name="Icon simple-adobeillustrator" d="M0,.45V45.211H45.909V.45ZM1.913,2.363H44V43.3H1.913ZM15.925,25.8,14.41,31.53c-.033.159-.1.2-.283.2H11.319c-.191,0-.22-.063-.191-.283L16.56,12.419a5.9,5.9,0,0,0,.187-1.593c0-.126.063-.191.159-.191h4.009c.126,0,.191.034.222.191L27.23,31.473c.033.159,0,.252-.159.252H23.915c-.159,0-.253-.038-.283-.165l-1.578-5.767H15.919Zm5.333-3.108c-.536-2.116-1.8-6.749-2.272-8.991h-.033c-.409,2.238-1.419,6.026-2.209,8.991Zm8.608-10.632a1.957,1.957,0,0,1,3.914,0,1.833,1.833,0,0,1-1.989,1.957,1.8,1.8,0,0,1-1.932-1.957Zm.214,4.35c0-.153.063-.21.222-.21h3c.168,0,.23.063.23.222v15.1c0,.159-.031.222-.22.222H30.35c-.191,0-.254-.1-.254-.249V16.4Z" transform="translate(0 -0.45)" fill="#f18000"/>
</svg>
