<svg xmlns="http://www.w3.org/2000/svg" width="44.755" height="44.755" viewBox="0 0 44.755 44.755">
  <path id="Icon_awesome-js-square" data-name="Icon awesome-js-square" d="M39.96,2.25H4.8A4.8,4.8,0,0,0,0,7.045V42.21A4.8,4.8,0,0,0,4.8,47H39.96a4.8,4.8,0,0,0,4.8-4.8V7.045A4.8,4.8,0,0,0,39.96,2.25Zm-15.6,34.9c0,4.356-2.557,6.344-6.284,6.344a6.534,6.534,0,0,1-6.314-3.846l3.427-2.068c.659,1.169,1.259,2.158,2.707,2.158,1.379,0,2.258-.539,2.258-2.647V22.8h4.206Zm9.95,6.344c-3.906,0-6.434-1.858-7.662-4.3l3.427-1.978a4.59,4.59,0,0,0,4.146,2.557c1.738,0,2.857-.869,2.857-2.078,0-1.439-1.139-1.948-3.067-2.8l-1.049-.45c-3.037-1.289-5.045-2.917-5.045-6.344,0-3.157,2.408-5.554,6.154-5.554a6.194,6.194,0,0,1,5.974,3.367l-3.277,2.1a2.86,2.86,0,0,0-2.707-1.8,1.826,1.826,0,0,0-2.008,1.8c0,1.259.779,1.768,2.587,2.557l1.049.45c3.576,1.528,5.584,3.1,5.584,6.613,0,3.776-2.977,5.854-6.963,5.854Z" transform="translate(0 -2.25)" fill="#fff023"/>
</svg>
