<svg xmlns="http://www.w3.org/2000/svg" width="64.367" height="33.853" viewBox="0 0 64.367 33.853">
  <path id="Icon_awesome-php" data-name="Icon awesome-php" d="M32.183,7.856c17.238,0,30.494,7.261,30.494,15.237S49.412,38.33,32.183,38.33,1.69,31.068,1.69,23.093,14.955,7.856,32.183,7.856m0-1.69C14.412,6.166,0,13.74,0,23.093S14.412,40.019,32.183,40.019s32.183-7.573,32.183-16.926S49.955,6.166,32.183,6.166ZM21.945,21.735c-.795,4.073-3.6,3.651-7.05,3.651l1.378-7.1C20.095,18.285,22.689,17.873,21.945,21.735ZM9.8,32.577h3.691l.875-4.506c4.134,0,6.7.3,9.072-1.921,2.625-2.414,3.309-6.708,1.438-8.861-.976-1.126-2.545-1.68-4.677-1.68H13.085ZM28.472,11.094h3.671L31.268,15.6c3.168,0,6.1-.231,7.523,1.076,1.488,1.368.774,3.118-.835,11.375H34.235c1.549-7.986,1.84-8.649,1.277-9.253-.543-.583-1.78-.463-4.767-.463l-1.891,9.715H25.184l3.289-16.957ZM50.789,21.735c-.8,4.134-3.691,3.651-7.05,3.651l1.378-7.1C48.959,18.285,51.534,17.873,50.789,21.735ZM38.64,32.577h3.7l.875-4.506c4.345,0,6.748.251,9.072-1.921,2.625-2.414,3.309-6.708,1.438-8.861-.976-1.126-2.545-1.68-4.677-1.68H41.939l-3.3,16.967Z" transform="translate(0 -6.167)" fill="#fff"/>
</svg>
