<svg xmlns="http://www.w3.org/2000/svg" width="45.909" height="44.761" viewBox="0 0 45.909 44.761">
  <path id="Icon_simple-adobephotoshop" data-name="Icon simple-adobephotoshop" d="M0,.45V45.211H45.909V.45ZM1.913,2.363H44V43.3H1.913Zm9.182,8.57c0-.128.268-.222.428-.222,1.232-.063,3.038-.1,4.931-.1,5.3,0,7.365,2.908,7.365,6.63,0,4.859-3.524,6.944-7.847,6.944-.727,0-.976-.033-1.482-.033v7.349c0,.159-.063.222-.22.222H11.317c-.159,0-.22-.057-.22-.216V10.933Zm3.4,10.161c.44.031.788.031,1.549.031,2.238,0,4.342-.788,4.342-3.818,0-2.429-1.5-3.661-4.059-3.661-.757,0-1.482.031-1.831.063V21.1Zm16.464-2.272c-1.515,0-2.02.757-2.02,1.389,0,.694.344,1.167,2.366,2.209,3,1.454,3.944,2.841,3.944,4.891,0,3.061-2.334,4.706-5.49,4.706a8.357,8.357,0,0,1-3.921-.823c-.124-.063-.153-.157-.153-.316V28.072c0-.191.092-.254.218-.161a7.047,7.047,0,0,0,3.849,1.136c1.515,0,2.146-.631,2.146-1.484,0-.694-.44-1.3-2.366-2.305-2.716-1.3-3.853-2.621-3.853-4.834,0-2.462,1.924-4.514,5.27-4.514a8.916,8.916,0,0,1,3.432.536.417.417,0,0,1,.191.379v2.621c0,.159-.1.254-.287.191a6.85,6.85,0,0,0-3.334-.823Z" transform="translate(0 -0.45)" fill="#2d1bc8"/>
</svg>
