<svg xmlns="http://www.w3.org/2000/svg" width="45.909" height="44.761" viewBox="0 0 45.909 44.761">
  <path id="Icon_simple-adobexd" data-name="Icon simple-adobexd" d="M37.779.45H8.13A8.123,8.123,0,0,0,0,8.58v28.5a8.123,8.123,0,0,0,8.13,8.13h29.65a8.123,8.123,0,0,0,8.13-8.13V8.58A8.123,8.123,0,0,0,37.779.45Zm6.2,35.886A6.93,6.93,0,0,1,37.052,43.3H8.857a6.956,6.956,0,0,1-6.944-6.944V9.307A6.956,6.956,0,0,1,8.857,2.363H37.033a6.944,6.944,0,0,1,6.944,6.944ZM18.153,21.4l5.356,10.291c.1.153.038.306-.115.306H20.066a.375.375,0,0,1-.4-.249c-1.224-2.525-2.468-5.05-3.749-7.766h-.038c-1.148,2.563-2.41,5.26-3.634,7.785a.367.367,0,0,1-.344.21H8.742c-.191,0-.21-.153-.115-.268l5.241-9.985L8.8,11.621a.155.155,0,0,1,.115-.268H12.2a.3.3,0,0,1,.344.21c1.205,2.525,2.429,5.127,3.577,7.671h.038c1.109-2.525,2.334-5.146,3.52-7.652.1-.153.153-.249.344-.249h3.08c.153,0,.21.115.115.268Zm6.293,3.118c0-4.457,2.965-7.938,7.671-7.938a8.483,8.483,0,0,1,.995.038V11.545a.192.192,0,0,1,.191-.191h3.022c.153,0,.191.057.191.153v17.56a13.625,13.625,0,0,0,.1,1.875c0,.115-.038.153-.153.21a11.394,11.394,0,0,1-4.9,1.109C27.412,32.28,24.447,29.717,24.447,24.514Zm8.665-4.9A2.893,2.893,0,0,0,32,19.426c-2.41,0-4.094,1.855-4.094,4.935,0,3.52,1.722,4.935,3.883,4.935a3.609,3.609,0,0,0,1.32-.21V19.617Z" transform="translate(0 -0.45)" fill="#ff61f6"/>
</svg>
